<svg id="visual" viewBox="0 0 900 600" width="900" height="600" xmlns="http://www.w3.org/2000/svg" xmlns:xlink="http://www.w3.org/1999/xlink" version="1.1"><rect x="0" y="0" width="900" height="600" fill="#f8fafc"></rect><path d="M0 297L21.5 289.5C43 282 86 267 128.8 278.7C171.7 290.3 214.3 328.7 257.2 347.3C300 366 343 365 385.8 356.5C428.7 348 471.3 332 514.2 305.7C557 279.3 600 242.7 642.8 237.8C685.7 233 728.3 260 771.2 279.2C814 298.3 857 309.7 878.5 315.3L900 321L900 601L878.5 601C857 601 814 601 771.2 601C728.3 601 685.7 601 642.8 601C600 601 557 601 514.2 601C471.3 601 428.7 601 385.8 601C343 601 300 601 257.2 601C214.3 601 171.7 601 128.8 601C86 601 43 601 21.5 601L0 601Z" fill="#14b8a6" stroke-linecap="round" stroke-linejoin="miter"></path></svg>